<?xml version="1.0" encoding="UTF-8" standalone="no"?><!-- Generator: Gravit.io --><svg xmlns="http://www.w3.org/2000/svg" xmlns:xlink="http://www.w3.org/1999/xlink" style="isolation:isolate" viewBox="0 0 99.39 31.181" width="99.39pt" height="31.181pt"><clipPath id="_clipPath_dW6A752u7rQRebSLK6ItoALH1hB9d0qg"><rect x="0" y="0" width="99.39" height="31.181" transform="matrix(1,0,0,1,0,0)" fill="rgb(255,255,255)"/></clipPath><g clip-path="url(#_clipPath_dW6A752u7rQRebSLK6ItoALH1hB9d0qg)"><path d=" M 72.359 3.627 C 73.273 3.627 74.067 4.611 74.465 6.052 C 75.907 6.45 76.89 7.244 76.89 8.158 C 76.89 9.073 75.907 9.866 74.465 10.264 C 74.067 11.706 73.273 12.689 72.359 12.689 C 71.445 12.689 70.651 11.706 70.253 10.264 C 68.811 9.866 67.828 9.073 67.828 8.158 C 67.828 7.244 68.811 6.45 70.253 6.052 C 70.651 4.611 71.445 3.627 72.359 3.627 Z " fill-rule="evenodd" fill="rgb(251,49,153)"/><path d=" M 11.153 0.428 C 15.419 0.428 19.102 2.922 20.83 6.534 L 19.085 6.534 C 17.492 3.805 14.537 1.971 11.153 1.971 C 6.082 1.971 1.971 6.089 1.971 11.169 C 1.971 16.249 6.082 20.367 11.153 20.367 C 16.033 20.367 20.022 16.554 20.317 11.741 L 16.444 11.741 L 16.444 10.198 L 20.284 10.198 L 20.284 10.197 L 21.834 10.197 L 21.834 10.198 L 21.849 10.198 L 21.849 10.389 C 21.868 10.647 21.878 10.907 21.878 11.169 C 21.878 17.101 17.076 21.91 11.153 21.91 C 5.23 21.91 0.428 17.101 0.428 11.169 C 0.428 5.237 5.23 0.428 11.153 0.428 Z " fill-rule="evenodd" fill="rgb(6,6,12)"/><path d=" M 33.381 16.114 L 33.381 16.794 L 33.381 16.794 L 33.381 19.137 L 33.381 19.146 L 33.381 19.164 L 33.381 19.173 L 33.381 19.191 L 33.382 19.191 C 33.399 19.685 33.76 20.091 34.232 20.173 L 34.232 21.725 C 33.109 21.649 32.183 20.848 31.917 19.785 C 30.866 20.958 29.341 21.695 27.645 21.695 C 24.475 21.695 21.905 19.121 21.905 15.946 C 21.905 12.771 24.475 10.197 27.645 10.197 C 30.814 10.197 33.384 12.771 33.384 15.946 C 33.384 16.002 33.383 16.058 33.381 16.114 Z  M 27.645 11.739 C 29.962 11.739 31.841 13.623 31.841 15.946 C 31.841 18.27 29.962 20.153 27.645 20.153 C 25.327 20.153 23.448 18.27 23.448 15.946 C 23.448 13.623 25.327 11.739 27.645 11.739 Z " fill-rule="evenodd" fill="rgb(6,6,12)"/><path d=" M 70.7 16.114 L 70.7 16.794 L 70.7 16.794 L 70.7 19.137 L 70.7 19.146 L 70.7 19.164 L 70.7 19.173 L 70.7 19.191 L 70.701 19.191 C 70.717 19.685 71.079 20.091 71.551 20.173 L 71.551 21.725 C 70.427 21.649 69.502 20.848 69.235 19.785 C 68.185 20.958 66.66 21.695 64.963 21.695 C 61.794 21.695 59.224 19.121 59.224 15.946 C 59.224 12.771 61.794 10.197 64.963 10.197 C 68.133 10.197 70.703 12.771 70.703 15.946 C 70.703 16.002 70.702 16.058 70.7 16.114 Z  M 64.963 11.739 C 67.281 11.739 69.16 13.623 69.16 15.946 C 69.16 18.27 67.281 20.153 64.963 20.153 C 62.646 20.153 60.767 18.27 60.767 15.946 C 60.767 13.623 62.646 11.739 64.963 11.739 Z " fill-rule="evenodd" fill="rgb(6,6,12)"/><path d=" M 40.736 10.197 C 43.706 10.197 46.148 12.456 46.445 15.352 L 46.445 15.352 L 46.445 15.946 L 46.445 21.694 L 44.903 21.694 L 44.903 15.439 C 44.653 13.355 42.883 11.739 40.736 11.739 C 38.591 11.739 36.822 13.353 36.57 15.436 L 36.57 15.821 L 36.57 21.694 L 35.028 21.694 L 35.028 15.946 L 35.028 15.821 L 35.028 15.352 L 35.027 15.352 L 35.028 15.347 L 35.028 15.134 L 35.028 15.134 L 35.028 12.79 L 35.028 12.781 L 35.028 12.763 L 35.028 12.754 L 35.028 12.736 L 35.027 12.736 C 35.01 12.236 34.64 11.827 34.159 11.752 L 34.159 10.202 C 35.273 10.27 36.194 11.048 36.479 12.091 C 37.529 10.928 39.047 10.197 40.736 10.197 Z " fill-rule="evenodd" fill="rgb(6,6,12)"/><path d=" M 52.785 10.197 C 54.487 10.197 56.016 10.939 57.067 12.118 C 57.345 11.052 58.287 10.257 59.423 10.2 L 59.423 11.747 C 58.928 11.81 58.543 12.226 58.526 12.736 L 58.525 12.736 L 58.525 12.754 L 58.525 12.763 L 58.525 12.781 L 58.525 12.79 L 58.525 15.134 L 58.525 15.134 L 58.525 15.821 L 58.523 15.821 C 58.524 15.863 58.525 15.905 58.525 15.946 C 58.525 19.121 55.955 21.695 52.785 21.695 C 49.616 21.695 47.046 19.121 47.046 15.946 C 47.046 12.771 49.616 10.197 52.785 10.197 Z  M 58.525 25.004 C 58.525 28.179 55.955 30.753 52.785 30.753 C 49.616 30.753 47.046 28.179 47.046 25.004 L 48.589 25.004 C 48.589 27.327 50.468 29.21 52.785 29.21 C 55.103 29.21 56.982 27.327 56.982 25.004 L 56.982 25.004 L 56.982 20.727 C 57.625 20.161 58.152 19.466 58.525 18.684 L 58.525 25.004 L 58.525 25.004 Z  M 52.785 11.739 C 55.103 11.739 56.982 13.623 56.982 15.946 C 56.982 18.27 55.103 20.153 52.785 20.153 C 50.468 20.153 48.589 18.27 48.589 15.946 C 48.589 13.623 50.468 11.739 52.785 11.739 Z " fill-rule="evenodd" fill="rgb(6,6,12)"/><path d=" M 77.982 1.833 C 77.982 1.871 77.98 1.903 77.976 1.93 C 77.971 1.957 77.964 1.98 77.954 1.997 C 77.944 2.013 77.933 2.026 77.918 2.033 C 77.903 2.041 77.887 2.045 77.87 2.045 L 76.666 2.045 L 76.666 5.362 C 76.666 5.378 76.661 5.391 76.652 5.403 C 76.643 5.415 76.629 5.424 76.606 5.431 C 76.584 5.438 76.555 5.444 76.519 5.449 C 76.482 5.454 76.436 5.456 76.381 5.456 C 76.328 5.456 76.283 5.454 76.245 5.449 C 76.208 5.444 76.177 5.438 76.156 5.431 C 76.133 5.424 76.119 5.415 76.109 5.403 C 76.1 5.391 76.096 5.378 76.096 5.362 L 76.096 2.045 L 74.891 2.045 C 74.874 2.045 74.859 2.041 74.844 2.033 C 74.829 2.026 74.818 2.013 74.809 1.997 C 74.801 1.98 74.793 1.957 74.787 1.93 C 74.782 1.903 74.779 1.871 74.779 1.833 C 74.779 1.796 74.782 1.763 74.787 1.735 C 74.793 1.706 74.801 1.683 74.809 1.666 C 74.818 1.648 74.829 1.635 74.844 1.628 C 74.859 1.62 74.874 1.616 74.891 1.616 L 77.87 1.616 C 77.887 1.616 77.903 1.62 77.918 1.628 C 77.933 1.635 77.944 1.648 77.954 1.666 C 77.964 1.683 77.971 1.706 77.976 1.735 C 77.98 1.763 77.982 1.796 77.982 1.833 Z " fill="rgb(6,6,12)"/><path d=" M 82.102 5.362 C 82.102 5.378 82.098 5.392 82.091 5.403 C 82.083 5.415 82.07 5.424 82.052 5.431 C 82.033 5.438 82.008 5.444 81.979 5.449 C 81.95 5.454 81.912 5.456 81.865 5.456 C 81.821 5.456 81.784 5.454 81.753 5.449 C 81.722 5.444 81.697 5.438 81.679 5.431 C 81.662 5.424 81.649 5.415 81.641 5.403 C 81.634 5.392 81.63 5.378 81.63 5.362 L 81.63 2.032 L 81.624 2.032 L 80.373 5.377 C 80.369 5.391 80.36 5.402 80.351 5.412 C 80.34 5.422 80.325 5.43 80.307 5.437 C 80.287 5.444 80.264 5.449 80.237 5.452 C 80.211 5.455 80.179 5.456 80.143 5.456 C 80.104 5.456 80.072 5.454 80.044 5.45 C 80.017 5.446 79.994 5.441 79.976 5.434 C 79.957 5.427 79.943 5.419 79.933 5.409 C 79.923 5.399 79.916 5.389 79.912 5.377 L 78.715 2.032 L 78.712 2.032 L 78.712 5.362 C 78.712 5.378 78.708 5.392 78.701 5.403 C 78.693 5.415 78.68 5.424 78.661 5.431 C 78.643 5.438 78.617 5.444 78.587 5.449 C 78.557 5.454 78.519 5.456 78.472 5.456 C 78.426 5.456 78.389 5.454 78.359 5.449 C 78.329 5.444 78.304 5.438 78.286 5.431 C 78.269 5.424 78.257 5.415 78.25 5.403 C 78.243 5.392 78.24 5.378 78.24 5.362 L 78.24 1.846 C 78.24 1.763 78.26 1.704 78.3 1.669 C 78.342 1.634 78.388 1.616 78.437 1.616 L 78.728 1.616 C 78.787 1.616 78.839 1.622 78.883 1.634 C 78.928 1.645 78.967 1.664 79 1.689 C 79.034 1.715 79.062 1.748 79.084 1.787 C 79.106 1.826 79.126 1.873 79.143 1.926 L 80.16 4.694 L 80.174 4.694 L 81.229 1.934 C 81.249 1.876 81.272 1.825 81.296 1.784 C 81.321 1.743 81.347 1.709 81.376 1.685 C 81.404 1.66 81.437 1.643 81.471 1.632 C 81.507 1.621 81.548 1.616 81.594 1.616 L 81.899 1.616 C 81.926 1.616 81.953 1.62 81.978 1.629 C 82.003 1.638 82.024 1.652 82.042 1.67 C 82.06 1.689 82.074 1.712 82.085 1.742 C 82.096 1.77 82.102 1.805 82.102 1.846 L 82.102 5.362 Z " fill="rgb(6,6,12)"/><path d=" M 62.17 30.657 L 62.17 24.967 L 66.279 24.967 L 66.279 25.635 L 62.925 25.635 L 62.925 27.383 L 66.064 27.383 L 66.064 28.051 L 62.925 28.051 L 62.925 29.99 L 66.414 29.99 L 66.414 30.657 L 62.17 30.657 Z  M 66.877 30.657 L 69.076 27.705 L 67.14 24.967 L 68.036 24.967 L 69.073 26.423 C 69.289 26.725 69.439 26.955 69.525 27.116 C 69.653 26.917 69.805 26.705 69.978 26.481 L 71.114 24.967 L 71.94 24.967 L 69.963 27.672 L 72.09 30.657 L 71.166 30.657 L 69.73 28.628 C 69.648 28.513 69.57 28.398 69.497 28.284 C 69.37 28.474 69.28 28.608 69.224 28.684 L 67.782 30.657 L 66.877 30.657 Z  M 72.755 30.657 L 72.755 24.967 L 74.904 24.967 C 75.281 24.967 75.57 24.986 75.77 25.022 C 76.049 25.068 76.284 25.157 76.473 25.287 C 76.662 25.418 76.815 25.6 76.93 25.835 C 77.045 26.069 77.102 26.328 77.102 26.61 C 77.102 27.092 76.948 27.501 76.64 27.835 C 76.333 28.17 75.775 28.337 74.97 28.337 L 73.51 28.337 L 73.51 30.657 L 72.755 30.657 Z  M 73.51 27.669 L 74.98 27.669 C 75.468 27.669 75.812 27.579 76.017 27.398 C 76.221 27.216 76.323 26.962 76.323 26.632 C 76.323 26.395 76.264 26.191 76.143 26.022 C 76.023 25.852 75.864 25.74 75.668 25.685 C 75.541 25.652 75.306 25.635 74.966 25.635 L 73.51 25.635 L 73.51 27.669 Z  M 77.825 27.888 C 77.825 26.945 78.079 26.206 78.587 25.672 C 79.094 25.138 79.748 24.872 80.551 24.872 C 81.077 24.872 81.55 24.998 81.972 25.248 C 82.393 25.498 82.715 25.848 82.936 26.297 C 83.158 26.745 83.269 27.253 83.269 27.822 C 83.269 28.398 83.152 28.914 82.919 29.369 C 82.686 29.824 82.356 30.168 81.93 30.402 C 81.502 30.636 81.041 30.753 80.547 30.753 C 80.01 30.753 79.532 30.623 79.11 30.364 C 78.689 30.106 78.368 29.754 78.151 29.306 C 77.934 28.86 77.825 28.387 77.825 27.888 Z  M 78.604 27.901 C 78.604 28.586 78.788 29.125 79.156 29.518 C 79.525 29.911 79.987 30.109 80.543 30.109 C 81.11 30.109 81.575 29.91 81.942 29.513 C 82.307 29.116 82.49 28.551 82.49 27.82 C 82.49 27.358 82.412 26.954 82.255 26.61 C 82.099 26.265 81.87 25.998 81.569 25.808 C 81.267 25.619 80.93 25.524 80.555 25.524 C 80.023 25.524 79.564 25.706 79.18 26.072 C 78.796 26.438 78.604 27.047 78.604 27.901 Z  M 84.253 30.657 L 84.253 24.967 L 86.775 24.967 C 87.282 24.967 87.667 25.019 87.931 25.121 C 88.194 25.223 88.405 25.403 88.562 25.661 C 88.72 25.92 88.798 26.206 88.798 26.518 C 88.798 26.922 88.667 27.263 88.406 27.539 C 88.145 27.816 87.743 27.991 87.197 28.067 C 87.397 28.162 87.548 28.257 87.651 28.35 C 87.871 28.551 88.079 28.804 88.274 29.108 L 89.258 30.657 L 88.317 30.657 L 87.565 29.473 C 87.347 29.13 87.165 28.869 87.023 28.688 C 86.88 28.506 86.753 28.38 86.641 28.308 C 86.53 28.236 86.414 28.186 86.298 28.157 C 86.213 28.139 86.074 28.13 85.879 28.13 L 85.008 28.13 L 85.008 30.657 L 84.253 30.657 Z  M 85.008 27.479 L 86.624 27.479 C 86.968 27.479 87.235 27.443 87.429 27.371 C 87.622 27.301 87.769 27.187 87.868 27.03 C 87.969 26.873 88.019 26.704 88.019 26.52 C 88.019 26.251 87.923 26.028 87.728 25.855 C 87.533 25.681 87.226 25.595 86.806 25.595 L 85.008 25.595 L 85.008 27.479 Z  M 91.279 30.657 L 91.279 25.635 L 89.404 25.635 L 89.404 24.967 L 93.909 24.967 L 93.909 25.635 L 92.034 25.635 L 92.034 30.657 L 91.279 30.657 Z  M 94.44 28.83 L 95.148 28.766 C 95.181 29.052 95.259 29.286 95.382 29.47 C 95.505 29.653 95.696 29.802 95.954 29.915 C 96.212 30.028 96.504 30.085 96.827 30.085 C 97.114 30.085 97.367 30.043 97.587 29.957 C 97.807 29.871 97.97 29.753 98.077 29.603 C 98.185 29.453 98.239 29.29 98.239 29.116 C 98.239 28.938 98.187 28.783 98.084 28.649 C 97.98 28.517 97.81 28.406 97.571 28.314 C 97.419 28.256 97.081 28.163 96.558 28.037 C 96.035 27.912 95.669 27.794 95.46 27.683 C 95.189 27.539 94.987 27.362 94.855 27.151 C 94.721 26.941 94.655 26.704 94.655 26.443 C 94.655 26.154 94.737 25.885 94.9 25.636 C 95.063 25.386 95.3 25.197 95.614 25.067 C 95.926 24.937 96.275 24.872 96.658 24.872 C 97.079 24.872 97.451 24.94 97.773 25.076 C 98.094 25.211 98.342 25.411 98.516 25.676 C 98.689 25.939 98.782 26.239 98.795 26.573 L 98.072 26.628 C 98.033 26.269 97.902 25.998 97.679 25.815 C 97.455 25.631 97.124 25.54 96.687 25.54 C 96.231 25.54 95.899 25.623 95.691 25.79 C 95.483 25.957 95.378 26.158 95.378 26.394 C 95.378 26.598 95.452 26.766 95.599 26.898 C 95.745 27.03 96.122 27.166 96.734 27.304 C 97.346 27.443 97.766 27.563 97.994 27.667 C 98.324 27.819 98.569 28.011 98.726 28.245 C 98.884 28.479 98.962 28.747 98.962 29.052 C 98.962 29.355 98.876 29.639 98.702 29.906 C 98.529 30.174 98.281 30.382 97.957 30.53 C 97.632 30.678 97.268 30.753 96.861 30.753 C 96.348 30.753 95.917 30.677 95.57 30.527 C 95.222 30.378 94.95 30.153 94.753 29.851 C 94.554 29.55 94.451 29.21 94.44 28.83 Z " fill="rgb(6,6,12)"/></g></svg>