<?xml version="1.0" encoding="UTF-8" standalone="no"?><svg xmlns="http://www.w3.org/2000/svg" xmlns:xlink="http://www.w3.org/1999/xlink" style="isolation:isolate" viewBox="0 0 595.276 841.89" width="595.276pt" height="841.89pt"><defs><clipPath id="_clipPath_1MAanfJrecrpw81Pjyibbejj9fxogL7f"><rect width="595.276" height="841.89"/></clipPath></defs><g clip-path="url(#_clipPath_1MAanfJrecrpw81Pjyibbejj9fxogL7f)"><g><g><clipPath id="_clipPath_IQViBbyEU5cXOaolO0UutuguyM3iriHe"><rect x="0" y="0" width="345.45" height="117.64" transform="matrix(1,0,0,1,0,0)" fill="rgb(255,255,255)"/></clipPath><g clip-path="url(#_clipPath_IQViBbyEU5cXOaolO0UutuguyM3iriHe)"><g><path d=" M 7.28 2.26 C 7.512 2.6 7.622 3.009 7.59 3.42 C 7.625 3.913 7.483 4.402 7.19 4.8 C 6.912 5.126 6.498 5.304 6.07 5.28 L 6.07 6.76 C 6.574 6.771 7.068 6.62 7.48 6.33 C 7.896 6.019 8.221 5.601 8.42 5.12 C 8.655 4.584 8.775 4.005 8.77 3.42 C 8.812 2.631 8.59 1.85 8.14 1.2 C 7.74 0.667 7.106 0.361 6.44 0.38 C 6.038 0.373 5.641 0.473 5.29 0.67 C 4.934 0.887 4.639 1.19 4.43 1.55 C 4.132 2.05 3.903 2.588 3.75 3.15 C 3.625 3.656 3.419 4.139 3.14 4.58 C 2.968 4.843 2.674 5.001 2.36 5 C 2.021 5.023 1.693 4.873 1.49 4.6 C 1.267 4.267 1.158 3.87 1.18 3.47 C 1.151 3.039 1.287 2.614 1.56 2.28 C 1.819 2.004 2.182 1.852 2.56 1.86 L 2.56 0.39 C 2.08 0.385 1.61 0.525 1.21 0.79 C 0.823 1.066 0.519 1.443 0.33 1.88 C 0.104 2.379 -0.009 2.922 0 3.47 C -0.038 4.253 0.199 5.024 0.67 5.65 C 1.063 6.195 1.698 6.512 2.37 6.5 C 3.172 6.488 3.904 6.039 4.28 5.33 C 4.587 4.815 4.829 4.264 5 3.69 C 5.128 3.184 5.333 2.702 5.61 2.26 C 5.822 2 6.145 1.855 6.48 1.87 C 6.803 1.858 7.113 2.003 7.31 2.26 M 4.31 16.59 L 4.31 19.83 L 5.4 19.83 L 5.4 18.07 L 7.07 18.07 C 7.455 18.517 7.64 19.103 7.58 19.69 C 7.609 20.322 7.325 20.928 6.82 21.31 C 6.184 21.729 5.43 21.932 4.67 21.89 L 4 21.89 C 3.258 21.931 2.521 21.742 1.89 21.35 C 1.408 21.003 1.136 20.433 1.17 19.84 C 1.129 19.395 1.271 18.952 1.563 18.614 C 1.856 18.276 2.274 18.073 2.72 18.05 L 2.72 16.6 C 1.949 16.663 1.233 17.021 0.72 17.6 C 0.208 18.242 -0.048 19.05 0 19.87 C -0.052 20.852 0.35 21.803 1.09 22.45 C 1.945 23.111 3.011 23.441 4.09 23.38 L 4.75 23.38 C 5.483 23.385 6.208 23.224 6.87 22.91 C 7.447 22.631 7.93 22.19 8.26 21.64 C 8.59 21.062 8.759 20.406 8.75 19.74 C 8.759 19.102 8.65 18.468 8.43 17.87 C 8.254 17.366 7.938 16.922 7.52 16.59 L 4.31 16.59 Z  M 0.12 33.52 L 0.12 35 L 6.19 35 L 0.12 38.8 L 0.12 40.29 L 8.65 40.29 L 8.65 38.8 L 2.6 38.8 L 8.65 35 L 8.65 33.52 L 0.12 33.52 Z  M 0.12 52.22 L 8.65 52.22 L 8.65 50.75 L 0.12 50.75 L 0.12 52.22 Z  M 0.12 62.7 L 0.12 64.17 L 6.19 64.17 L 0.12 68 L 0.12 69.48 L 8.65 69.48 L 8.65 68 L 2.6 68 L 8.65 64.19 L 8.65 62.7 L 0.12 62.7 Z  M 1.31 84.11 L 1.31 82.55 C 1.287 82.125 1.426 81.706 1.7 81.38 C 1.985 81.111 2.369 80.973 2.76 81 C 3.141 80.987 3.507 81.145 3.76 81.43 C 4.033 81.756 4.169 82.176 4.14 82.6 L 4.14 84.12 L 1.31 84.11 Z  M 8.65 80.75 L 8.65 79.16 L 8.57 79.16 L 5 81.08 C 4.819 80.617 4.511 80.214 4.11 79.92 C 3.688 79.637 3.188 79.493 2.68 79.51 C 1.951 79.465 1.242 79.76 0.76 80.31 C 0.283 80.971 0.049 81.777 0.1 82.59 L 0.1 85.59 L 8.65 85.59 L 8.65 84.11 L 5.37 84.11 L 5.37 82.46 L 8.65 80.75 Z  M 1.93 99.09 L 5.47 97.86 L 5.47 100.33 L 1.93 99.09 Z  M 8.65 96.74 L 8.65 95.2 L 0.12 98.43 L 0.12 99.76 L 8.65 103 L 8.65 101.46 L 6.65 100.77 L 6.65 97.44 L 8.65 96.74 Z  M 3.65 112.65 L 3.65 116.16 L 1.31 116.16 L 1.31 112.1 L 0.12 112.1 L 0.12 117.64 L 8.65 117.64 L 8.65 112.06 L 7.46 112.06 L 7.46 116.16 L 4.84 116.16 L 4.84 112.65 L 3.65 112.65 Z " fill="rgb(35,31,32)"/><path d=" M 344 1.87 C 344.21 2.208 344.308 2.603 344.28 3 C 344.315 3.493 344.173 3.982 343.88 4.38 C 343.601 4.705 343.188 4.882 342.76 4.86 L 342.76 6.38 C 343.262 6.388 343.753 6.234 344.16 5.94 C 344.579 5.633 344.907 5.218 345.11 4.74 C 345.346 4.191 345.462 3.598 345.45 3 C 345.493 2.214 345.271 1.435 344.82 0.79 C 344.426 0.25 343.788 -0.058 343.12 -0.03 C 342.726 -0.027 342.34 0.08 342 0.28 C 341.639 0.498 341.34 0.804 341.13 1.17 C 340.839 1.669 340.614 2.203 340.46 2.76 C 340.335 3.266 340.129 3.749 339.85 4.19 C 339.681 4.459 339.388 4.625 339.07 4.63 C 338.733 4.643 338.41 4.494 338.2 4.23 C 337.974 3.898 337.865 3.501 337.89 3.1 C 337.858 2.666 337.994 2.237 338.27 1.9 C 338.529 1.624 338.892 1.472 339.27 1.48 L 339.27 0 C 338.818 0.011 338.377 0.15 338 0.4 C 337.566 0.661 337.219 1.043 337 1.5 C 336.775 1.999 336.666 2.543 336.68 3.09 C 336.645 3.871 336.878 4.64 337.34 5.27 C 337.739 5.807 338.371 6.12 339.04 6.11 C 339.862 6.121 340.619 5.668 341 4.94 C 341.307 4.429 341.539 3.877 341.69 3.3 C 341.82 2.797 342.029 2.317 342.31 1.88 C 342.521 1.629 342.832 1.484 343.16 1.484 C 343.488 1.484 343.799 1.629 344.01 1.88 M 336.84 12.88 L 336.84 14.36 L 342.92 14.36 L 336.84 18.17 L 336.84 19.6 L 345.37 19.6 L 345.37 18.12 L 339.32 18.12 L 345.37 14.32 L 345.37 12.83 L 336.84 12.88 Z  M 341.33 27.75 C 342.097 27.702 342.86 27.887 343.52 28.28 C 343.983 28.64 344.254 29.194 344.254 29.78 C 344.254 30.366 343.983 30.92 343.52 31.28 C 342.87 31.682 342.113 31.874 341.35 31.83 L 340.86 31.83 C 340.109 31.866 339.366 31.67 338.73 31.27 C 338.267 30.91 337.996 30.356 337.996 29.77 C 337.996 29.184 338.267 28.63 338.73 28.27 C 339.384 27.87 340.145 27.682 340.91 27.73 L 341.33 27.75 Z  M 340.86 26.27 C 340.105 26.253 339.357 26.407 338.67 26.72 C 338.076 26.978 337.573 27.41 337.23 27.96 C 336.563 29.103 336.563 30.517 337.23 31.66 C 337.588 32.207 338.095 32.64 338.69 32.91 C 339.386 33.214 340.14 33.364 340.9 33.35 L 341.38 33.35 C 342.124 33.354 342.86 33.201 343.54 32.9 C 344.134 32.636 344.635 32.2 344.98 31.65 C 345.66 30.507 345.66 29.083 344.98 27.94 C 344.63 27.392 344.126 26.961 343.53 26.7 C 342.837 26.398 342.086 26.252 341.33 26.27 L 340.86 26.27 Z  M 336.86 41.52 L 345.39 41.52 L 345.39 40 L 336.8 40 L 336.86 41.52 Z  M 336.86 47.87 L 336.86 54.63 L 338 54.63 L 338 52 L 345.33 52 L 345.33 50.48 L 338 50.48 L 338 47.82 L 336.86 47.87 Z  M 342.62 61.8 C 343.107 61.822 343.569 62.021 343.92 62.36 C 344.21 62.733 344.352 63.199 344.32 63.67 C 344.348 64.248 344.071 64.798 343.59 65.12 C 342.951 65.49 342.217 65.664 341.48 65.62 L 340.72 65.62 C 339.992 65.658 339.27 65.473 338.65 65.09 C 338.178 64.744 337.911 64.184 337.94 63.6 C 337.909 63.143 338.056 62.692 338.35 62.34 C 338.712 62.009 339.18 61.818 339.67 61.8 L 339.67 60.28 C 338.847 60.318 338.072 60.677 337.51 61.28 C 336.98 61.914 336.708 62.725 336.75 63.55 C 336.735 64.201 336.904 64.842 337.24 65.4 C 337.586 65.937 338.079 66.364 338.66 66.63 C 339.33 66.926 340.057 67.073 340.79 67.06 L 341.58 67.06 C 342.293 67.06 342.998 66.91 343.65 66.62 C 344.217 66.363 344.697 65.946 345.03 65.42 C 345.356 64.877 345.523 64.253 345.51 63.62 C 345.553 62.773 345.282 61.94 344.75 61.28 C 344.201 60.677 343.435 60.317 342.62 60.28 L 342.62 61.8 Z  M 336.8 75 L 342.46 75 C 343.67 75 344.27 75.57 344.27 76.71 C 344.305 77.178 344.142 77.639 343.82 77.98 C 343.458 78.293 342.988 78.451 342.51 78.42 L 336.8 78.42 L 336.8 79.89 L 342.5 79.89 C 343.315 79.937 344.109 79.622 344.67 79.03 C 345.717 77.661 345.717 75.759 344.67 74.39 C 344.112 73.798 343.323 73.48 342.51 73.52 L 336.81 73.52 L 336.8 75 Z  M 338 90.21 C 337.956 89.545 338.226 88.897 338.73 88.46 C 339.346 88.022 340.095 87.81 340.85 87.86 L 341.33 87.86 C 342.079 87.815 342.82 88.038 343.42 88.49 C 343.924 88.944 344.193 89.603 344.15 90.28 L 344.15 91.28 L 338 91.28 L 338 90.21 Z  M 345.33 90.28 C 345.338 89.583 345.169 88.895 344.84 88.28 C 344.513 87.69 344.019 87.21 343.42 86.9 C 342.756 86.569 342.022 86.405 341.28 86.42 L 340.86 86.42 C 340.125 86.405 339.397 86.57 338.74 86.9 C 338.14 87.199 337.643 87.669 337.31 88.25 C 336.968 88.861 336.792 89.55 336.8 90.25 L 336.8 92.77 L 345.33 92.77 L 345.33 90.28 Z  M 340.33 99.67 L 340.33 103.17 L 338 103.17 L 338 99.17 L 336.8 99.17 L 336.8 104.71 L 345.33 104.71 L 345.33 99.08 L 344.15 99.08 L 344.15 103.17 L 341.52 103.17 L 341.52 99.67 L 340.33 99.67 Z  M 338 115.12 C 337.954 114.454 338.225 113.806 338.73 113.37 C 339.343 112.924 340.094 112.708 340.85 112.76 L 341.33 112.76 C 342.081 112.718 342.822 112.945 343.42 113.4 C 343.924 113.854 344.193 114.513 344.15 115.19 L 344.15 116.19 L 338 116.19 L 338 115.12 Z  M 345.33 115.18 C 345.339 114.483 345.17 113.794 344.84 113.18 C 344.513 112.59 344.019 112.11 343.42 111.8 C 342.756 111.469 342.022 111.305 341.28 111.32 L 340.86 111.32 C 340.125 111.305 339.397 111.47 338.74 111.8 C 338.14 112.099 337.643 112.569 337.31 113.15 C 336.968 113.761 336.792 114.45 336.8 115.15 L 336.8 117.67 L 345.33 117.67 L 345.33 115.18 Z " fill="rgb(35,31,32)"/></g></g></g></g></g></svg>